<svg xmlns="http://www.w3.org/2000/svg" width="529.06409" height="490.34725" viewBox="586.46796 401.79433 529.06409 490.34725"><path fill="currentColor" d="M848.64613,420.35589c24.74874,-24.74874 74.24621,-24.74874 98.99495,0l149.32941,149.32941c24.74874,24.74874 24.74874,74.24621 0,98.99495l-162.26112,162.26112c-1.41421,1.41421 -4.24264,4.24264 -5.65685,5.65686l-0.57894,0.57894c-1.76777,1.76777 -1.03553,3.53553 1.46447,3.53553h108.72076c6.5,0 13,6.5 13,13v25.42888c0,6.5 -6.5,13 -13,13h-311.79349c-8,0 -21.65685,-5.65685 -27.31371,-11.31371l-82.95543,-82.95543c-19.29072,-19.28973 -30.12822,-45.45281 -30.12822,-72.7333c0,-27.28049 10.8375,-53.44357 30.12822,-72.7333zM696.811,666.12467c-5.30291,-5.30369 -15.90708,-5.30203 -21.20833,0.00332l-22.64627,22.66379c-20.07691,20.08297 -20.07691,52.63747 0,72.72044l71.42231,71.42231c3.88909,3.88909 13.27817,7.77817 18.77817,7.77817h103.34367c3,0 8.11551,-2.12712 10.23101,-4.25423l0.94932,-0.95453c2.11551,-2.12712 2.10985,-6.37571 -0.01132,-8.49719z" id="CompoundPath-1"/></svg>
